<?xml version="1.0" encoding="utf-8"?>
<!-- Generator: Adobe Illustrator 16.0.4, SVG Export Plug-In . SVG Version: 6.00 Build 0)  -->
<!DOCTYPE svg PUBLIC "-//W3C//DTD SVG 1.1//EN" "http://www.w3.org/Graphics/SVG/1.1/DTD/svg11.dtd">
<svg version="1.1" id="Layer_1" xmlns="http://www.w3.org/2000/svg" xmlns:xlink="http://www.w3.org/1999/xlink" x="0px" y="0px"
	 width="480px" height="480px" viewBox="0 0 480 480" enable-background="new 0 0 480 480" xml:space="preserve">
<g id="grid_2">
</g>
<g id="Layer_2">
	<path d="M460,240c0,121.5-98.493,220-220,220c-121.5,0-220-98.5-220-220c0-121.501,98.5-220,220-220
		C361.507,20,460,118.499,460,240z M61.25,240c0,98.721,80.029,178.75,178.75,178.75S418.75,338.721,418.75,240
		S338.721,61.25,240,61.25S61.25,141.279,61.25,240z M274.43,162.79l68.75,61.875l-0.055,0.062c4.188,3.772,6.875,9.19,6.875,15.273
		s-2.688,11.5-6.875,15.273l0.055,0.059l-68.75,61.871l-0.055-0.054c-3.652,3.29-8.445,5.351-13.75,5.351
		c-11.387,0-20.625-9.231-20.625-20.625c0-6.086,2.688-11.5,6.875-15.273l-0.047-0.059l28.795-25.918H150.625
		C139.238,260.625,130,251.387,130,240c0-11.395,9.238-20.625,20.625-20.625h124.998l-28.795-25.915l0.047-0.062
		c-4.188-3.772-6.875-9.19-6.875-15.273c0-11.387,9.238-20.625,20.625-20.625c5.305,0,10.098,2.061,13.75,5.352L274.43,162.79z"/>
</g>
</svg>
