<?xml version="1.0" encoding="utf-8"?>
<!-- Generator: Adobe Illustrator 16.0.4, SVG Export Plug-In . SVG Version: 6.00 Build 0)  -->
<!DOCTYPE svg PUBLIC "-//W3C//DTD SVG 1.1//EN" "http://www.w3.org/Graphics/SVG/1.1/DTD/svg11.dtd">
<svg version="1.1" id="Layer_1" xmlns="http://www.w3.org/2000/svg" xmlns:xlink="http://www.w3.org/1999/xlink" x="0px" y="0px"
	 width="480px" height="480px" viewBox="0 0 480 480" enable-background="new 0 0 480 480" xml:space="preserve">
<g id="grid_2">
</g>
<g id="Layer_2">
	<path d="M20,240c0-121.5,98.493-220,220-220c121.5,0,220,98.5,220,220c0,121.501-98.5,220-220,220C118.493,460,20,361.501,20,240z
		 M418.75,240c0-98.721-80.029-178.75-178.75-178.75c-98.72,0-178.75,80.029-178.75,178.75S141.28,418.75,240,418.75
		C338.721,418.75,418.75,338.721,418.75,240z M205.571,317.21l-68.75-61.875l0.054-0.062C132.687,251.501,130,246.083,130,240
		s2.687-11.5,6.875-15.273l-0.054-0.059l68.75-61.871l0.054,0.054c3.652-3.29,8.446-5.351,13.75-5.351
		c11.387,0,20.625,9.231,20.625,20.625c0,6.086-2.687,11.5-6.875,15.273l0.047,0.059l-28.795,25.918h124.998
		c11.387,0,20.625,9.238,20.625,20.625c0,11.395-9.238,20.625-20.625,20.625H204.377l28.795,25.915l-0.047,0.062
		c4.188,3.772,6.875,9.19,6.875,15.273c0,11.387-9.238,20.625-20.625,20.625c-5.304,0-10.098-2.061-13.75-5.352L205.571,317.21z"/>
</g>
</svg>
