<?xml version="1.0" encoding="utf-8"?>
<!-- Generator: Adobe Illustrator 16.0.4, SVG Export Plug-In . SVG Version: 6.00 Build 0)  -->
<!DOCTYPE svg PUBLIC "-//W3C//DTD SVG 1.1//EN" "http://www.w3.org/Graphics/SVG/1.1/DTD/svg11.dtd">
<svg version="1.1" xmlns="http://www.w3.org/2000/svg" xmlns:xlink="http://www.w3.org/1999/xlink" x="0px" y="0px" width="480px"
	 height="480px" viewBox="0 0 480 480" enable-background="new 0 0 480 480" xml:space="preserve">
<g id="grid_2">
</g>
<g id="Layer_2">
	<path fill-rule="evenodd" clip-rule="evenodd" d="M240,20c121.5,0,220,98.493,220,220c0,121.5-98.5,220-220,220
		c-121.501,0-220-98.5-220-220C20,118.493,118.499,20,240,20z M240,418.75c98.721,0,178.75-80.029,178.75-178.75
		c0-98.72-80.029-178.75-178.75-178.75c-98.72,0-178.75,80.03-178.75,178.75C61.25,338.721,141.28,418.75,240,418.75z
		 M162.79,205.571l61.875-68.75l0.062,0.054c3.772-4.188,9.19-6.875,15.273-6.875s11.5,2.687,15.274,6.875l0.058-0.054l61.871,68.75
		l-0.054,0.054c3.29,3.652,5.351,8.446,5.351,13.75c0,11.387-9.231,20.625-20.625,20.625c-6.086,0-11.5-2.687-15.274-6.875
		l-0.058,0.047l-25.918-28.795v124.998c0,11.387-9.238,20.625-20.625,20.625c-11.394,0-20.625-9.238-20.625-20.625V204.377
		l-25.915,28.795l-0.062-0.047c-3.772,4.188-9.19,6.875-15.273,6.875c-11.387,0-20.625-9.238-20.625-20.625
		c0-5.304,2.061-10.098,5.352-13.75L162.79,205.571z"/>
</g>
</svg>
