<?xml version="1.0" encoding="utf-8"?>
<!-- Generator: Adobe Illustrator 16.0.4, SVG Export Plug-In . SVG Version: 6.00 Build 0)  -->
<!DOCTYPE svg PUBLIC "-//W3C//DTD SVG 1.1//EN" "http://www.w3.org/Graphics/SVG/1.1/DTD/svg11.dtd">
<svg version="1.1" xmlns="http://www.w3.org/2000/svg" xmlns:xlink="http://www.w3.org/1999/xlink" x="0px" y="0px" width="480px"
	 height="480px" viewBox="0 0 480 480" enable-background="new 0 0 480 480" xml:space="preserve">
<g id="grid_2">
</g>
<g id="Layer_2">
	<path fill-rule="evenodd" clip-rule="evenodd" d="M386.245,374.552H93.755c-12.114,0-21.937-9.774-21.937-21.821
		c0-12.057,9.823-21.821,21.937-21.821s21.937-9.767,21.937-21.822V163.632c0-56.232,45.832-101.815,102.371-101.815
		c0-12.047,9.824-21.817,21.937-21.817c12.118,0,21.938,9.77,21.938,21.817c56.539,0,102.372,45.583,102.372,101.815v145.455
		c0,12.056,9.823,21.822,21.937,21.822s21.937,9.765,21.937,21.821C408.182,364.777,398.358,374.552,386.245,374.552z M239.999,440
		c-24.231,0-43.874-19.531-43.874-43.635h87.748C283.873,420.469,264.232,440,239.999,440z"/>
</g>
</svg>
