<?xml version="1.0" encoding="utf-8"?>
<!-- Generator: Adobe Illustrator 16.0.4, SVG Export Plug-In . SVG Version: 6.00 Build 0)  -->
<!DOCTYPE svg PUBLIC "-//W3C//DTD SVG 1.1//EN" "http://www.w3.org/Graphics/SVG/1.1/DTD/svg11.dtd">
<svg version="1.1" xmlns="http://www.w3.org/2000/svg" xmlns:xlink="http://www.w3.org/1999/xlink" x="0px" y="0px" width="480px"
	 height="480px" viewBox="0 0 480 480" enable-background="new 0 0 480 480" xml:space="preserve">
<g id="grid_2">
</g>
<g id="Layer_2">
	<path fill-rule="evenodd" clip-rule="evenodd" d="M74.379,102.107c0-11.429,9.273-20.702,20.702-20.702h103.514V60.703
		c0-11.43,9.266-20.703,20.702-20.703h41.406c11.43,0,20.701,9.273,20.701,20.703v20.703h103.514
		c11.43,0,20.703,9.273,20.703,20.702v20.703H74.379V102.107z M384.918,164.215v41.405v213.926c0,11.438-9.273,20.703-20.703,20.703
		h-248.43c-11.43,0-20.703-9.266-20.703-20.703V205.621v-41.405v-20.703h289.836V164.215z M177.892,205.621
		c0-11.43-9.273-20.703-20.702-20.703c-11.43,0-20.703,9.273-20.703,20.703v172.522c0,11.437,9.273,20.702,20.703,20.702
		c11.429,0,20.702-9.266,20.702-20.702V205.621z M260.703,205.621c0-11.43-9.273-20.703-20.704-20.703
		c-11.43,0-20.702,9.273-20.702,20.703v172.522c0,11.437,9.272,20.702,20.702,20.702c11.431,0,20.704-9.266,20.704-20.702V205.621z
		 M343.514,205.621c0-11.43-9.273-20.703-20.703-20.703s-20.703,9.273-20.703,20.703v172.522c0,11.437,9.273,20.702,20.703,20.702
		s20.703-9.266,20.703-20.702V205.621z"/>
</g>
</svg>
