<?xml version="1.0" encoding="utf-8"?>
<!-- Generator: Adobe Illustrator 16.0.4, SVG Export Plug-In . SVG Version: 6.00 Build 0)  -->
<!DOCTYPE svg PUBLIC "-//W3C//DTD SVG 1.1//EN" "http://www.w3.org/Graphics/SVG/1.1/DTD/svg11.dtd">
<svg version="1.1" xmlns="http://www.w3.org/2000/svg" xmlns:xlink="http://www.w3.org/1999/xlink" x="0px" y="0px" width="480px"
	 height="480px" viewBox="0 0 480 480" enable-background="new 0 0 480 480" xml:space="preserve">
<g id="grid_2">
</g>
<g id="Layer_2">
	<path fill-rule="evenodd" clip-rule="evenodd" d="M240,461c-122.053,0-221-98.939-221-221c0-122.053,98.947-221,221-221
		c122.052,0,221,98.947,221,221C461,362.061,362.052,461,240,461z M240,60.438c-99.169,0-179.562,80.393-179.562,179.562
		c0,99.17,80.393,179.562,179.562,179.562c99.17,0,179.562-80.393,179.562-179.562C419.562,140.831,339.17,60.438,240,60.438z
		 M305.737,257.865l-109.883,68.881l-0.086-0.135c-0.783,0.486-1.602,0.932-2.452,1.315c-0.035,0.021-0.061,0.034-0.094,0.048
		c-0.83,0.363-1.688,0.688-2.57,0.95c-0.061,0.021-0.125,0.033-0.188,0.054c-0.378,0.107-0.763,0.209-1.153,0.291
		c-0.069,0.02-0.135,0.04-0.202,0.053c-0.436,0.096-0.877,0.169-1.323,0.236c-0.068,0.007-0.141,0.021-0.209,0.026
		c-0.371,0.048-0.745,0.089-1.126,0.122c-0.114,0.006-0.232,0.021-0.35,0.026c-0.445,0.028-0.898,0.048-1.35,0.048
		c-11.441,0-20.719-9.273-20.719-20.719l0,0l0,0V170.938l0,0c0-11.438,9.277-20.719,20.719-20.719c4.333,0,8.356,1.335,11.682,3.608
		l109.123,68.207c6.22,3.574,10.414,10.278,10.414,17.967C315.969,247.614,311.857,254.264,305.737,257.865z"/>
</g>
</svg>
