<?xml version="1.0" encoding="utf-8"?>
<!-- Generator: Adobe Illustrator 16.0.4, SVG Export Plug-In . SVG Version: 6.00 Build 0)  -->
<!DOCTYPE svg PUBLIC "-//W3C//DTD SVG 1.1//EN" "http://www.w3.org/Graphics/SVG/1.1/DTD/svg11.dtd">
<svg version="1.1" xmlns="http://www.w3.org/2000/svg" xmlns:xlink="http://www.w3.org/1999/xlink" x="0px" y="0px" width="480px"
	 height="480px" viewBox="0 0 480 480" enable-background="new 0 0 480 480" xml:space="preserve">
<g id="grid_2" display="none">
</g>
<g id="Layer_2">
	<path fill-rule="evenodd" clip-rule="evenodd" d="M434.857,393.771l-59.612,59.6c-4.051,4.051-9.637,6.55-15.811,6.55
		c-6.173,0-11.765-2.499-15.81-6.55l-29.807-29.8c-4.044-4.039-6.543-9.643-6.543-15.804c0-12.347,10.006-22.366,22.353-22.366
		c6.174,0,11.76,2.499,15.804,6.55l14.003,13.997l43.803-43.798l0,0c4.052-4.051,9.636-6.549,15.816-6.549
		c12.341,0,22.354,10.006,22.354,22.354C441.407,384.129,438.902,389.719,434.857,393.771z M366.888,366.894l-7.695,7.689
		c-7.89-7.059-18.139-11.522-29.564-11.522c-24.693,0-44.712,20.014-44.712,44.707c0,12.347,5.002,23.518,13.093,31.606l0,0
		l13.1,13.1l0,0h-78.357l0,0H61.359C49.012,452.474,39,442.468,39,430.121V42.62c0-12.347,10.012-22.354,22.359-22.354h52.159
		h67.072v81.881v44.804c0,24.755,20.012,44.816,44.707,44.816h44.719h96.872v134.034l0,0V366.894z M225.297,169.365
		c-12.347,0-22.353-10.042-22.353-22.414v-44.804V20l163.944,149.365h-96.872H225.297z"/>
</g>
</svg>
