<?xml version="1.0" encoding="utf-8"?>
<!-- Generator: Adobe Illustrator 16.0.4, SVG Export Plug-In . SVG Version: 6.00 Build 0)  -->
<!DOCTYPE svg PUBLIC "-//W3C//DTD SVG 1.1//EN" "http://www.w3.org/Graphics/SVG/1.1/DTD/svg11.dtd">
<svg version="1.1" xmlns="http://www.w3.org/2000/svg" xmlns:xlink="http://www.w3.org/1999/xlink" x="0px" y="0px" width="480px"
	 height="480px" viewBox="0 0 480 480" enable-background="new 0 0 480 480" xml:space="preserve">
<g id="grid_2">
</g>
<g id="Layer_2">
	<path fill-rule="evenodd" clip-rule="evenodd" d="M439.354,432.477H40.648c-11.388,0-20.624-9.225-20.624-20.619V68.146
		c0-11.389,9.235-20.624,20.624-20.624h398.706c11.389,0,20.62,9.235,20.62,20.624v343.711
		C459.975,423.252,450.743,432.477,439.354,432.477z M61.268,68.146c-11.388,0-20.619,9.235-20.619,20.624
		c0,11.389,9.231,20.624,20.619,20.624c11.393,0,20.624-9.235,20.624-20.624C81.892,77.382,72.66,68.146,61.268,68.146z
		 M123.139,68.146c-11.389,0-20.624,9.235-20.624,20.624c0,11.389,9.235,20.624,20.624,20.624c11.388,0,20.623-9.235,20.623-20.624
		C143.762,77.382,134.527,68.146,123.139,68.146z M185.005,68.146c-11.388,0-20.624,9.235-20.624,20.624
		c0,11.389,9.235,20.624,20.624,20.624c11.388,0,20.624-9.235,20.624-20.624C205.628,77.382,196.393,68.146,185.005,68.146z
		 M439.354,130.022h-20.623H61.268H40.648v281.835h398.706V130.022z M178.133,253.754c5.692,0,10.852,2.303,14.583,6.041l0,0
		l26.66,26.662l67.908-67.907l0,0c3.735-3.73,8.892-6.042,14.588-6.042c11.388,0,20.618,9.235,20.618,20.618
		c0,5.697-2.306,10.847-6.037,14.585l0,0l-82.495,82.498l0,0c-3.731,3.719-8.885,6.029-14.582,6.029
		c-5.691,0-10.852-2.311-14.581-6.029l0,0l-41.243-41.258l0,0c-3.735-3.721-6.042-8.883-6.042-14.576
		C157.51,262.979,166.74,253.754,178.133,253.754z"/>
</g>
</svg>
