<?xml version="1.0" encoding="utf-8"?>
<!-- Generator: Adobe Illustrator 16.0.4, SVG Export Plug-In . SVG Version: 6.00 Build 0)  -->
<!DOCTYPE svg PUBLIC "-//W3C//DTD SVG 1.1//EN" "http://www.w3.org/Graphics/SVG/1.1/DTD/svg11.dtd">
<svg version="1.1" id="Layer_1" xmlns="http://www.w3.org/2000/svg" xmlns:xlink="http://www.w3.org/1999/xlink" x="0px" y="0px"
	 width="550px" height="250px" viewBox="-70.417 17.542 550 250" enable-background="new -70.417 17.542 550 250"
	 xml:space="preserve">
<path id="cat_1_" d="M275.278,267.326c54.28-5.383,80.329-22.91,92.331-50.142c23.776,0.653,66.563,3.55,107.491,15.095l0.486-1.722
	c-40.693-11.479-83.198-14.448-107.215-15.147c1.138-2.751,2.13-5.612,3.012-8.555c24.38-1.013,65.072-1,104.688,6.915l-0.058-0.026
	l0.354-1.759c-39.466-7.892-79.967-7.971-104.469-6.953c4.025-14.502,5.235-31.19,5.235-49.798
	c0-26.689-10.026-48.039-26.305-64.286c2.845-9.182,6.644-29.574-3.794-55.679c0,0-18.417-5.847-60.071,22.032
	c-16.317-4.078-33.684-6.092-51.075-6.092c-19.135,0-38.471,2.437-56.504,7.384c-42.985-29.325-61.96-23.317-61.96-23.317
	c-12.386,30.974-4.728,53.909-2.401,59.604c-14.559,15.712-23.447,35.77-23.447,60.36c0,18.564,2.114,35.218,7.276,49.693
	c-24.711-0.899-63.734-0.554-101.792,7.057l0.35,1.759c38.287-7.657,77.556-7.923,102.116-6.994
	c1.138,2.997,2.405,5.903,3.826,8.712c-24.288,0.783-65.759,3.878-105.502,15.09l0.49,1.722
	c40.058-11.294,81.889-14.312,105.94-15.048c14.512,27.05,43.122,44.519,94.02,50.005L275.278,267.326z"/>
<path id="cat_3_" d="M91.57,267.327c-8.107-8.674-15.853-18.995-23.07-31.212c0,0-35.569-63.967-102.828-68.525
	c0,0-65.218-0.545-4.218,40.669c0,0,28.626,13.246,55.786,59.063L91.57,267.327"/>
<path id="face" fill="#F4CBB2" d="M324.049,153.98c11.69,10.591,18.529,23.382,18.529,37.163c0,64.343-47.964,66.087-107.125,66.087
	c-59.172,0-107.131-8.91-107.131-66.087c0-13.689,6.743-26.4,18.29-36.949c19.261-17.58,51.857-8.271,88.84-8.271
	c36.816-0.005,69.303-9.409,88.591,8.051L324.049,153.98z"/>
<path id="eyes" fill="#FFFFFF" d="M199.818,194.417c0,17.723-9.98,32.087-22.29,32.087c-12.311,0-22.291-14.364-22.291-32.087
	c0-17.721,9.98-32.081,22.291-32.081C189.838,162.349,199.818,176.698,199.818,194.417z M319.413,194.417
	c0,17.723-9.979,32.087-22.29,32.087s-22.291-14.364-22.291-32.087c0-17.721,9.98-32.081,22.291-32.081
	C309.434,162.349,319.413,176.698,319.413,194.417z"/>
<g>
	<path id="pupils" fill="#AD5C51" d="M192.675,194.822c0,11.813-6.662,21.387-14.861,21.387s-14.86-9.574-14.86-21.387
		c0-11.818,6.656-21.396,14.86-21.396c8.194,0,14.856,9.574,14.856,21.391L192.675,194.822z M312.258,194.822
		c0,11.813-6.662,21.387-14.861,21.387s-14.859-9.574-14.859-21.387c0-11.818,6.655-21.396,14.859-21.396
		c8.194,0,14.856,9.574,14.856,21.391L312.258,194.822z"/>
	<circle id="nose" fill="#AD5C51" cx="235.787" cy="222.912" r="5.574"/>
	<path id="mouth" fill="#AD5C51" d="M222.78,237.008c-0.329-0.935,0.162-1.957,1.091-2.286c0.933-0.33,1.958,0.162,2.286,1.09
		c1.437,4.05,5.278,6.771,9.563,6.771c4.286,0,8.127-2.72,9.563-6.771c0.329-0.935,1.352-1.42,2.285-1.09
		c0.936,0.329,1.42,1.351,1.092,2.286c-1.936,5.476-7.141,9.156-12.94,9.156c-5.799,0-10.993-3.66-12.931-9.144L222.78,237.008z"/>
</g>
<path id="octo" fill="#C3E4D8" d="M-5.129,183.446c0.035,4.992-5.786,9.061-12.985,9.111c-7.197,0.05-13.076-3.938-13.11-8.93
	c-0.035-4.993,5.788-9.081,12.984-9.13c7.199-0.05,13.076,3.945,13.111,8.962V183.446z M31.134,203.254
	c0.035,4.99-5.785,9.06-12.984,9.109c-7.194,0.05-13.075-3.937-13.11-8.928c-0.035-4.994,5.79-9.079,12.984-9.129
	c7.199-0.05,13.075,3.947,13.11,8.961V203.254z M53.386,229.194c0.035,4.991-5.786,9.06-12.985,9.11
	c-7.194,0.05-13.075-3.937-13.11-8.928c-0.035-4.99,5.79-9.082,12.985-9.132c7.198-0.05,13.076,3.947,13.11,8.965V229.194z
	 M66.322,267.325 M54.77,267.324c-4.251-1.458-7.184-4.479-7.208-7.999c-0.035-4.993,5.79-9.081,12.984-9.132
	c7.199-0.05,13.074,3.947,13.109,8.964v-0.014c0.025,3.586-2.973,6.697-7.333,8.182L54.77,267.324"/>
<path id="drop_1_" fill="#9CDAF1" d="M-40.388,267.542c1.887-4.621,1.196-10.078,0.586-12.673l-13.045-44.312l-12.714,45.489
	c0,0-1.218,6.092,1.326,11.491L-40.388,267.542z"/>
</svg>
