<?xml version="1.0" encoding="utf-8"?>
<!-- Generator: Adobe Illustrator 16.0.4, SVG Export Plug-In . SVG Version: 6.00 Build 0)  -->
<!DOCTYPE svg PUBLIC "-//W3C//DTD SVG 1.1//EN" "http://www.w3.org/Graphics/SVG/1.1/DTD/svg11.dtd">
<svg version="1.1" id="Layer_1" xmlns="http://www.w3.org/2000/svg" xmlns:xlink="http://www.w3.org/1999/xlink" x="0px" y="0px"
	 width="480px" height="480px" viewBox="0 0 480 480" enable-background="new 0 0 480 480" xml:space="preserve">
<circle fill-rule="evenodd" clip-rule="evenodd" fill="#FFFFFF" stroke="#808080" stroke-width="9" stroke-miterlimit="10" cx="239.591" cy="239.088" r="232.992"/>
<g>
	<path fill-rule="evenodd" clip-rule="evenodd" fill="#4D4D4D" d="M331.05,253.875c-8.304,0.793-16.349,2.767-24.492,3.468
		c-9.731,0.838-11.344,4.915-15.412,12.787c-3.632,7.027-7.299,14-10.487,21.243c-1.354,3.072-6.418,17.559-9.859,14.93
		c-13.331-10.185,6.61-43.374,12.378-53.956c9.975-18.304,19.015-38.137,30.902-55.285c8.149-11.76-11.076-10.825-17.452-10.111
		c-5.341,0.598-10.647,1.474-15.957,2.292c-4.828,0.744-12.84,1.042-17.014,3.212c-6.797,3.532-11.839,18.164-15.77,24.511
		c-2.156,3.484-14.401,21.09-12.64,24.405c1.417,2.668,16.9,0.195,19.886,0.336c3.915,0.183,16.251,10.868,9.157,12.159
		c-7.842,1.43-15.738,0.755-23.423,2.773c-6.119,1.605-15.759-0.202-18.353,7.522c-2.415,7.192-7.021,14.683-10.682,21.377
		c-1.695,3.101-9.199,23.263-12.437,20.84c-9.497-7.103-1.062-25.164,2.599-32.996c5.794-12.395,11.709-24.472,18.118-36.571
		c5.755-10.864,12.085-21.378,18.05-32.121c1.215-2.187,7.528-9.947,6.46-12.573c-0.709-1.742-12.599-13.363-3.979-13.256
		c11.037,0.134,22.242-1.181,33.14-3.18c9.886-1.814,25.783-6.243,32.293,4.457c1.18,1.939,6.695-1.101,9.824-1.011
		c5.795,0.168,11.457-1.004,17.167-1.762c11.78-1.561,24.816-5.806,36.63-3.127c3.317,0.753,10.386,6.021,10.85,9.715
		c0.531,4.204-7.549,2.359-9.581,2.549c-6.293,0.588-12.656,1.851-18.92,2.75c-4.787,0.687-12.714,1.081-16.866,3.187
		c-6.805,3.453-11.847,18.19-15.781,24.499c-2.181,3.497-14.484,21.388-12.609,24.53c1.534,2.577,13.581,0.073,16.309,0.124
		c7.909,0.136,12.113,2.946,14.609,10.294c0.915,2.692-5.522,2.266-6.623,2.358C331.073,254.123,331.061,254,331.05,253.875
		C326.021,254.355,331.061,254,331.05,253.875z"/>
	<path fill-rule="evenodd" clip-rule="evenodd" fill="#4D4D4D" d="M100.634,285.681c7.601-36.521,10.006-73.904,22.919-109.315
		c1.411-3.867,2.58-4.035,5.265-1.085c5.363,5.891,3.164,21.659,1.245,28.647c-2.428,8.845-4.157,17.814-6.229,26.741
		c-1.966,8.47-3.738,17.211-5.15,25.784c-1.065,6.462-7.811,23.671-4.58,29.228c6.811-4.214,12.426-17.539,16.87-24.358
		c6.642-10.192,13.961-19.94,21.297-29.639c7.474-9.882,14.859-19.777,22.533-29.509c7.252-9.198,14.709-21.559,24.24-28.513
		c5.254-3.834,3.411,8.651,3.144,9.998c-1.409,7.077-5.483,13.291-9.676,19.026c-8.854,12.112-18.301,23.805-27.366,35.762
		c-16.74,22.079-32.054,44.902-48.194,67.368c-1.956,2.722-4.026,2.893-6.47,0.599C103.981,300.317,102.636,294.168,100.634,285.681
		C101.11,283.389,101.232,288.211,100.634,285.681z"/>
	<path fill-rule="evenodd" clip-rule="evenodd" fill="#4D4D4D" d="M163.616,292.864c6.649-23.103,17.396-44.573,28.879-65.63
		c5.163-9.469,10.263-18.94,15.74-28.243c3.022-5.136,6.2-10.27,9.496-15.251c0.892-1.347,10.026-16.561,11.3-11.105
		c5.492,23.484-14.53,46.009-25,65.626c-5.928,11.107-12.041,22.066-17.593,33.353c-5.317,10.822-10.047,23.666-17.112,33.422
		c-0.84,1.162-2.059,0.896-2.822-0.592C164.891,301.295,163.616,298.019,163.616,292.864
		C164.026,291.438,163.616,298.019,163.616,292.864z"/>
</g>
<g>
	
		<circle fill="none" stroke="#666666" stroke-width="2" stroke-miterlimit="10" stroke-dasharray="12.101,12.101" cx="239.591" cy="239.088" r="207.992"/>
</g>
</svg>
